<svg t="1614917593333" class="icon" viewBox="0 0 1024 1024" version="1.1" xmlns="http://www.w3.org/2000/svg" p-id="2952" width="32" height="32"><path d="M512 73.142857A438.857143 438.857143 0 1 1 73.142857 512 438.857143 438.857143 0 0 1 512 73.142857m0-73.142857a512 512 0 1 0 512 512A512 512 0 0 0 512 0z" p-id="2953" fill="#8a8a8a"></path><path d="M744.777143 382.72l-310.857143 310.857143a18.285714 18.285714 0 0 1-25.965714 0l-129.28-129.28a18.285714 18.285714 0 0 1 0-25.965714L305.188571 512a18.285714 18.285714 0 0 1 25.782858 0l85.394285 85.394286a7.314286 7.314286 0 0 0 10.24 0L693.028571 330.971429a18.285714 18.285714 0 0 1 25.782858 0l25.965714 25.782857a18.285714 18.285714 0 0 1 0 25.965714z" p-id="2954" fill="#8a8a8a"></path></svg>